<?xml version="1.0" encoding="UTF-8" standalone="no"?>
<!DOCTYPE svg PUBLIC "-//W3C//DTD SVG 1.1//EN" "http://www.w3.org/Graphics/SVG/1.1/DTD/svg11.dtd">
<svg width="100%" height="100%" viewBox="0 0 300 300" version="1.1" xmlns="http://www.w3.org/2000/svg" xmlns:xlink="http://www.w3.org/1999/xlink" xml:space="preserve" xmlns:serif="http://www.serif.com/" style="fill-rule:evenodd;clip-rule:evenodd;stroke-linecap:round;stroke-linejoin:round;stroke-miterlimit:1.5;">
    <g transform="matrix(1,0,0,1,-0,-8.082984)">
        <g id="head" transform="matrix(0.229266,0,0,0.637747,-293.605704,-18.357765)">
            <rect x="1280.634" y="41.46" width="1308.525" height="470.406" style="fill:none;"/>
            <clipPath id="_clip1">
                <rect x="1280.634" y="41.46" width="1308.525" height="470.406"/>
            </clipPath>
            <g clip-path="url(#_clip1)">
                <g transform="matrix(3.293777,0,0,1.184092,914.442436,-325.379034)">
                    <g transform="matrix(-1,0,0,1,579.696573,232.584676)">
                        <path d="M195.778,121.624L271.171,126.457C278.571,116.02 287.137,106.877 296.802,99.292L220.378,99.292C211.54,105.97 203.307,113.449 195.778,121.624Z" style="fill:rgb(26,77,46);"/>
                    </g>
                    <path d="M266.685,685.007C265.99,684.08 265.299,683.148 264.612,682.209C334.347,668.296 403.207,617.284 431.422,553.662C463.287,481.811 432.295,418.722 362.151,404.838C368.622,403.508 375.431,402.599 382.559,402.144C389.561,401.697 396.65,401.702 403.783,402.133C464.047,413.529 506.198,450.946 508.362,503.31C511.514,579.589 428.626,658.884 323.379,680.274C311.69,682.649 300.213,684.211 289.041,685.007L266.685,685.007Z" style="fill:rgb(26,77,46);"/>
                    <g transform="matrix(1.045664,0.212515,-0.030378,0.735109,72.237178,287.624482)">
                        <path d="M309.632,65.821C305.992,66.847 302.375,68.042 298.787,69.409C284.157,74.981 271.034,83.025 259.589,93.043L221.711,98.294C233.287,89.711 245.877,82.491 259.258,76.863L309.632,65.821Z" style="fill:rgb(88,126,92);"/>
                    </g>
                    <g transform="matrix(1,0,0,1,-34.485121,252.558099)">
                        <path d="M280.042,432.449C202.64,410.709 145.662,337.673 145.662,251.026C145.662,174.55 190.048,108.678 253.687,79.319L335.719,79.319C332.802,80.158 329.908,81.119 327.039,82.203C292.955,95.077 267.699,123.329 252.921,160.412C231.831,213.332 232.081,284.238 258.47,354.101C269.533,383.389 284.164,409.778 301.17,432.449L280.042,432.449Z" style="fill:rgb(88,126,92);"/>
                    </g>
                    <g transform="matrix(1,0,0,1,40.198118,-522.063411)">
                        <path d="M205.988,999.657C225.33,1004.493 248.206,1006.287 223.627,1030.866C188.077,1066.416 210.782,1072.093 214.129,1072.929" style="fill:none;stroke:rgb(18,85,44);stroke-width:9.14px;"/>
                    </g>
                    <g transform="matrix(1,0,0,1,24.636217,-523.174975)">
                        <path d="M291.472,1020.011C321.223,1025.961 320.825,1026.833 351.175,1028.152" style="fill:none;stroke:rgb(18,85,44);stroke-width:9.14px;"/>
                    </g>
                    <g transform="matrix(1.289655,0,0,1.780644,-45.201358,-1414.844414)">
                        <path d="M223.627,1127.205C237.529,1132.074 275.46,1139.282 302.327,1125.848" style="fill:none;stroke:rgb(18,85,44);stroke-width:5.88px;"/>
                    </g>
                </g>
            </g>
        </g>
    </g>
</svg>
